<mxfile host="app.diagrams.net" agent="Mozilla/5.0 (Windows NT 10.0; Win64; x64) AppleWebKit/537.36 (KHTML, like Gecko) Chrome/131.0.0.0 Safari/537.36" version="24.9.1">
  <diagram name="Page-1" id="g4qXW3BQraEy_AZE0QJB">
    <mxGraphModel dx="2035" dy="1013" grid="1" gridSize="10" guides="1" tooltips="1" connect="1" arrows="1" fold="1" page="1" pageScale="1" pageWidth="850" pageHeight="1100" math="0" shadow="0">
      <root>
        <mxCell id="0" />
        <mxCell id="1" parent="0" />
        <mxCell id="0CdiC7lVXGRy8pzWBtaX-1" value="Line_buffer_1" style="rounded=0;whiteSpace=wrap;html=1;" parent="1" vertex="1">
          <mxGeometry x="280" y="360" width="120" height="40" as="geometry" />
        </mxCell>
        <mxCell id="0CdiC7lVXGRy8pzWBtaX-7" value="Line_buffer_2" style="rounded=0;whiteSpace=wrap;html=1;" parent="1" vertex="1">
          <mxGeometry x="500" y="360" width="120" height="40" as="geometry" />
        </mxCell>
        <mxCell id="0CdiC7lVXGRy8pzWBtaX-14" value="" style="endArrow=classic;html=1;rounded=0;exitX=1;exitY=0.5;exitDx=0;exitDy=0;entryX=0;entryY=0.5;entryDx=0;entryDy=0;" parent="1" source="0CdiC7lVXGRy8pzWBtaX-1" target="0CdiC7lVXGRy8pzWBtaX-7" edge="1">
          <mxGeometry width="50" height="50" relative="1" as="geometry">
            <mxPoint x="410" y="450" as="sourcePoint" />
            <mxPoint x="460" y="400" as="targetPoint" />
          </mxGeometry>
        </mxCell>
        <mxCell id="0CdiC7lVXGRy8pzWBtaX-15" value="" style="endArrow=classic;html=1;rounded=0;" parent="1" edge="1">
          <mxGeometry width="50" height="50" relative="1" as="geometry">
            <mxPoint x="460" y="380" as="sourcePoint" />
            <mxPoint x="520" y="480" as="targetPoint" />
            <Array as="points">
              <mxPoint x="460" y="480" />
            </Array>
          </mxGeometry>
        </mxCell>
        <mxCell id="0CdiC7lVXGRy8pzWBtaX-16" value="" style="endArrow=classic;html=1;rounded=0;exitX=1;exitY=0.5;exitDx=0;exitDy=0;entryX=0;entryY=0.5;entryDx=0;entryDy=0;" parent="1" source="0CdiC7lVXGRy8pzWBtaX-7" edge="1" target="0CdiC7lVXGRy8pzWBtaX-17">
          <mxGeometry width="50" height="50" relative="1" as="geometry">
            <mxPoint x="600" y="379.66" as="sourcePoint" />
            <mxPoint x="680" y="379.66" as="targetPoint" />
          </mxGeometry>
        </mxCell>
        <mxCell id="0CdiC7lVXGRy8pzWBtaX-17" value="Line_buffer_3" style="rounded=0;whiteSpace=wrap;html=1;" parent="1" vertex="1">
          <mxGeometry x="780" y="360" width="120" height="40" as="geometry" />
        </mxCell>
        <mxCell id="0CdiC7lVXGRy8pzWBtaX-18" value="" style="endArrow=classic;html=1;rounded=0;exitX=1;exitY=0.5;exitDx=0;exitDy=0;" parent="1" source="0CdiC7lVXGRy8pzWBtaX-17" edge="1" target="lLt-1EE2n1AX8kDy37Z9-1">
          <mxGeometry width="50" height="50" relative="1" as="geometry">
            <mxPoint x="920" y="430" as="sourcePoint" />
            <mxPoint x="940" y="380" as="targetPoint" />
          </mxGeometry>
        </mxCell>
        <mxCell id="8vL3I7tltaLsaMj2PIX5-1" value="d19" style="rounded=0;whiteSpace=wrap;html=1;" parent="1" vertex="1">
          <mxGeometry x="520" y="460" width="40" height="40" as="geometry" />
        </mxCell>
        <mxCell id="8vL3I7tltaLsaMj2PIX5-2" value="" style="endArrow=classic;html=1;rounded=0;exitX=1;exitY=0.5;exitDx=0;exitDy=0;" parent="1" source="8vL3I7tltaLsaMj2PIX5-1" edge="1">
          <mxGeometry width="50" height="50" relative="1" as="geometry">
            <mxPoint x="580" y="480" as="sourcePoint" />
            <mxPoint x="600" y="480" as="targetPoint" />
          </mxGeometry>
        </mxCell>
        <mxCell id="8vL3I7tltaLsaMj2PIX5-3" value="d.." style="rounded=0;whiteSpace=wrap;html=1;" parent="1" vertex="1">
          <mxGeometry x="600" y="460" width="40" height="40" as="geometry" />
        </mxCell>
        <mxCell id="8vL3I7tltaLsaMj2PIX5-4" value="d15" style="rounded=0;whiteSpace=wrap;html=1;" parent="1" vertex="1">
          <mxGeometry x="680" y="460" width="40" height="40" as="geometry" />
        </mxCell>
        <mxCell id="8vL3I7tltaLsaMj2PIX5-5" value="" style="endArrow=classic;html=1;rounded=0;exitX=1;exitY=0.5;exitDx=0;exitDy=0;entryX=0;entryY=0.5;entryDx=0;entryDy=0;" parent="1" source="8vL3I7tltaLsaMj2PIX5-3" target="8vL3I7tltaLsaMj2PIX5-4" edge="1">
          <mxGeometry width="50" height="50" relative="1" as="geometry">
            <mxPoint x="670" y="460" as="sourcePoint" />
            <mxPoint x="720" y="410" as="targetPoint" />
          </mxGeometry>
        </mxCell>
        <mxCell id="lLt-1EE2n1AX8kDy37Z9-1" value="Line_buffer_4" style="rounded=0;whiteSpace=wrap;html=1;" vertex="1" parent="1">
          <mxGeometry x="1060" y="360" width="120" height="40" as="geometry" />
        </mxCell>
        <mxCell id="lLt-1EE2n1AX8kDy37Z9-2" value="Line_buffer_5" style="rounded=0;whiteSpace=wrap;html=1;" vertex="1" parent="1">
          <mxGeometry x="1370" y="360" width="120" height="40" as="geometry" />
        </mxCell>
        <mxCell id="lLt-1EE2n1AX8kDy37Z9-3" value="" style="endArrow=classic;html=1;rounded=0;entryX=0;entryY=0.5;entryDx=0;entryDy=0;exitX=1;exitY=0.5;exitDx=0;exitDy=0;" edge="1" parent="1" source="lLt-1EE2n1AX8kDy37Z9-1" target="lLt-1EE2n1AX8kDy37Z9-2">
          <mxGeometry width="50" height="50" relative="1" as="geometry">
            <mxPoint x="960" y="480" as="sourcePoint" />
            <mxPoint x="1010" y="430" as="targetPoint" />
          </mxGeometry>
        </mxCell>
        <mxCell id="lLt-1EE2n1AX8kDy37Z9-5" value="" style="endArrow=classic;html=1;rounded=0;" edge="1" parent="1">
          <mxGeometry width="50" height="50" relative="1" as="geometry">
            <mxPoint x="730" y="380" as="sourcePoint" />
            <mxPoint x="790" y="480" as="targetPoint" />
            <Array as="points">
              <mxPoint x="730" y="480" />
            </Array>
          </mxGeometry>
        </mxCell>
        <mxCell id="lLt-1EE2n1AX8kDy37Z9-6" value="d14" style="rounded=0;whiteSpace=wrap;html=1;" vertex="1" parent="1">
          <mxGeometry x="790" y="460" width="40" height="40" as="geometry" />
        </mxCell>
        <mxCell id="lLt-1EE2n1AX8kDy37Z9-7" value="" style="endArrow=classic;html=1;rounded=0;exitX=1;exitY=0.5;exitDx=0;exitDy=0;" edge="1" parent="1" source="lLt-1EE2n1AX8kDy37Z9-6">
          <mxGeometry width="50" height="50" relative="1" as="geometry">
            <mxPoint x="850" y="480" as="sourcePoint" />
            <mxPoint x="870" y="480" as="targetPoint" />
          </mxGeometry>
        </mxCell>
        <mxCell id="lLt-1EE2n1AX8kDy37Z9-8" value="d.." style="rounded=0;whiteSpace=wrap;html=1;" vertex="1" parent="1">
          <mxGeometry x="870" y="460" width="40" height="40" as="geometry" />
        </mxCell>
        <mxCell id="lLt-1EE2n1AX8kDy37Z9-9" value="d10" style="rounded=0;whiteSpace=wrap;html=1;" vertex="1" parent="1">
          <mxGeometry x="950" y="460" width="40" height="40" as="geometry" />
        </mxCell>
        <mxCell id="lLt-1EE2n1AX8kDy37Z9-10" value="" style="endArrow=classic;html=1;rounded=0;exitX=1;exitY=0.5;exitDx=0;exitDy=0;entryX=0;entryY=0.5;entryDx=0;entryDy=0;" edge="1" parent="1" source="lLt-1EE2n1AX8kDy37Z9-8" target="lLt-1EE2n1AX8kDy37Z9-9">
          <mxGeometry width="50" height="50" relative="1" as="geometry">
            <mxPoint x="940" y="460" as="sourcePoint" />
            <mxPoint x="990" y="410" as="targetPoint" />
          </mxGeometry>
        </mxCell>
        <mxCell id="lLt-1EE2n1AX8kDy37Z9-11" value="" style="endArrow=classic;html=1;rounded=0;" edge="1" parent="1">
          <mxGeometry width="50" height="50" relative="1" as="geometry">
            <mxPoint x="1010" y="380" as="sourcePoint" />
            <mxPoint x="1070" y="480" as="targetPoint" />
            <Array as="points">
              <mxPoint x="1010" y="480" />
            </Array>
          </mxGeometry>
        </mxCell>
        <mxCell id="lLt-1EE2n1AX8kDy37Z9-12" value="d14" style="rounded=0;whiteSpace=wrap;html=1;" vertex="1" parent="1">
          <mxGeometry x="1070" y="460" width="40" height="40" as="geometry" />
        </mxCell>
        <mxCell id="lLt-1EE2n1AX8kDy37Z9-13" value="" style="endArrow=classic;html=1;rounded=0;exitX=1;exitY=0.5;exitDx=0;exitDy=0;" edge="1" parent="1" source="lLt-1EE2n1AX8kDy37Z9-12">
          <mxGeometry width="50" height="50" relative="1" as="geometry">
            <mxPoint x="1130" y="480" as="sourcePoint" />
            <mxPoint x="1150" y="480" as="targetPoint" />
          </mxGeometry>
        </mxCell>
        <mxCell id="lLt-1EE2n1AX8kDy37Z9-14" value="d.." style="rounded=0;whiteSpace=wrap;html=1;" vertex="1" parent="1">
          <mxGeometry x="1150" y="460" width="40" height="40" as="geometry" />
        </mxCell>
        <mxCell id="lLt-1EE2n1AX8kDy37Z9-15" value="d10" style="rounded=0;whiteSpace=wrap;html=1;" vertex="1" parent="1">
          <mxGeometry x="1230" y="460" width="40" height="40" as="geometry" />
        </mxCell>
        <mxCell id="lLt-1EE2n1AX8kDy37Z9-16" value="" style="endArrow=classic;html=1;rounded=0;exitX=1;exitY=0.5;exitDx=0;exitDy=0;entryX=0;entryY=0.5;entryDx=0;entryDy=0;" edge="1" parent="1" source="lLt-1EE2n1AX8kDy37Z9-14" target="lLt-1EE2n1AX8kDy37Z9-15">
          <mxGeometry width="50" height="50" relative="1" as="geometry">
            <mxPoint x="1220" y="460" as="sourcePoint" />
            <mxPoint x="1270" y="410" as="targetPoint" />
          </mxGeometry>
        </mxCell>
        <mxCell id="lLt-1EE2n1AX8kDy37Z9-17" value="" style="endArrow=classic;html=1;rounded=0;" edge="1" parent="1">
          <mxGeometry width="50" height="50" relative="1" as="geometry">
            <mxPoint x="1290" y="380" as="sourcePoint" />
            <mxPoint x="1350" y="480" as="targetPoint" />
            <Array as="points">
              <mxPoint x="1290" y="480" />
            </Array>
          </mxGeometry>
        </mxCell>
        <mxCell id="lLt-1EE2n1AX8kDy37Z9-18" value="d9" style="rounded=0;whiteSpace=wrap;html=1;" vertex="1" parent="1">
          <mxGeometry x="1350" y="460" width="40" height="40" as="geometry" />
        </mxCell>
        <mxCell id="lLt-1EE2n1AX8kDy37Z9-19" value="" style="endArrow=classic;html=1;rounded=0;exitX=1;exitY=0.5;exitDx=0;exitDy=0;" edge="1" parent="1" source="lLt-1EE2n1AX8kDy37Z9-18">
          <mxGeometry width="50" height="50" relative="1" as="geometry">
            <mxPoint x="1410" y="480" as="sourcePoint" />
            <mxPoint x="1430" y="480" as="targetPoint" />
          </mxGeometry>
        </mxCell>
        <mxCell id="lLt-1EE2n1AX8kDy37Z9-20" value="d.." style="rounded=0;whiteSpace=wrap;html=1;" vertex="1" parent="1">
          <mxGeometry x="1430" y="460" width="40" height="40" as="geometry" />
        </mxCell>
        <mxCell id="lLt-1EE2n1AX8kDy37Z9-21" value="d5" style="rounded=0;whiteSpace=wrap;html=1;" vertex="1" parent="1">
          <mxGeometry x="1510" y="460" width="40" height="40" as="geometry" />
        </mxCell>
        <mxCell id="lLt-1EE2n1AX8kDy37Z9-22" value="" style="endArrow=classic;html=1;rounded=0;exitX=1;exitY=0.5;exitDx=0;exitDy=0;entryX=0;entryY=0.5;entryDx=0;entryDy=0;" edge="1" parent="1" source="lLt-1EE2n1AX8kDy37Z9-20" target="lLt-1EE2n1AX8kDy37Z9-21">
          <mxGeometry width="50" height="50" relative="1" as="geometry">
            <mxPoint x="1500" y="460" as="sourcePoint" />
            <mxPoint x="1550" y="410" as="targetPoint" />
          </mxGeometry>
        </mxCell>
        <mxCell id="lLt-1EE2n1AX8kDy37Z9-23" value="d4" style="rounded=0;whiteSpace=wrap;html=1;" vertex="1" parent="1">
          <mxGeometry x="1560" y="360" width="40" height="40" as="geometry" />
        </mxCell>
        <mxCell id="lLt-1EE2n1AX8kDy37Z9-24" value="" style="endArrow=classic;html=1;rounded=0;exitX=1;exitY=0.5;exitDx=0;exitDy=0;" edge="1" parent="1" source="lLt-1EE2n1AX8kDy37Z9-23">
          <mxGeometry width="50" height="50" relative="1" as="geometry">
            <mxPoint x="1620" y="380" as="sourcePoint" />
            <mxPoint x="1640" y="380" as="targetPoint" />
          </mxGeometry>
        </mxCell>
        <mxCell id="lLt-1EE2n1AX8kDy37Z9-25" value="d.." style="rounded=0;whiteSpace=wrap;html=1;" vertex="1" parent="1">
          <mxGeometry x="1640" y="360" width="40" height="40" as="geometry" />
        </mxCell>
        <mxCell id="lLt-1EE2n1AX8kDy37Z9-26" value="d0" style="rounded=0;whiteSpace=wrap;html=1;" vertex="1" parent="1">
          <mxGeometry x="1720" y="360" width="40" height="40" as="geometry" />
        </mxCell>
        <mxCell id="lLt-1EE2n1AX8kDy37Z9-27" value="" style="endArrow=classic;html=1;rounded=0;exitX=1;exitY=0.5;exitDx=0;exitDy=0;entryX=0;entryY=0.5;entryDx=0;entryDy=0;" edge="1" parent="1" source="lLt-1EE2n1AX8kDy37Z9-25" target="lLt-1EE2n1AX8kDy37Z9-26">
          <mxGeometry width="50" height="50" relative="1" as="geometry">
            <mxPoint x="1710" y="360" as="sourcePoint" />
            <mxPoint x="1760" y="310" as="targetPoint" />
          </mxGeometry>
        </mxCell>
        <mxCell id="lLt-1EE2n1AX8kDy37Z9-28" value="" style="endArrow=classic;html=1;rounded=0;entryX=0;entryY=0.5;entryDx=0;entryDy=0;exitX=1.019;exitY=0.503;exitDx=0;exitDy=0;exitPerimeter=0;" edge="1" parent="1" source="lLt-1EE2n1AX8kDy37Z9-2" target="lLt-1EE2n1AX8kDy37Z9-23">
          <mxGeometry width="50" height="50" relative="1" as="geometry">
            <mxPoint x="1560" y="399" as="sourcePoint" />
            <mxPoint x="1750" y="399" as="targetPoint" />
          </mxGeometry>
        </mxCell>
      </root>
    </mxGraphModel>
  </diagram>
</mxfile>
